<?xml version="1.0" encoding="UTF-8" standalone="no"?>
<svg xmlns="http://www.w3.org/2000/svg" xml:space="preserve" viewBox="0 0 512 640" version="1.1" y="0px" x="0px" xmlns:xlink="http://www.w3.org/1999/xlink">
<path class="fill" d="m445.4 374.6c19.9-18.6 32.1-43.8 32.1-71.5 0-53.8-46.1-98.1-104.6-102.7 0.5 4.9 0.8 9.8 0.8 14.8 0 65-44 120.9-106.6 145 20.6 27.8 55.8 46.1 95.6 46.1 13.9 0 27.7-2.3 40.9-6.8 1.2 1.1 2.6 1.9 4.2 2.3l40.8 12.3c6.7 2 10.3-1.6 8-8.1l-11.2-31.4z"/>
<path class="fill fill-02" d="m364.2 209.4c0-87-78.8-157.7-175.6-157.7s-175.6 70.8-175.6 157.7c0 42.4 18.7 80.9 49.1 109.3l-17 48.1c-3.5 9.9 2 15.5 12.2 12.4l62.4-18.9c2.4-0.7 4.6-1.9 6.4-3.5 20.1 6.9 41.2 10.4 62.5 10.3 96.8 0 175.6-70.7 175.6-157.7z"/>
</svg>
