<svg xmlns="http://www.w3.org/2000/svg" x="0px" y="0px" viewBox="0 0 446.5 411.5">
  <path d="M225.462,9C146.214,9,81.969,73.524,81.2,153.32c0.385,27.872,8.463,54.216,22.697,75.978L214.306,382.4 c3.078,5.727,7.309,8.399,11.156,8.399l0,0c4.231,0,8.079-2.672,11.156-8.399l110.024-153.103 c14.233-22.144,22.697-48.106,22.697-75.978C368.955,73.524,304.71,9,225.462,9z M225.462,214.79 c-35.007,0-63.091-27.871-63.091-62.615c0-34.744,28.083-62.615,63.091-62.615s63.091,27.871,63.091,62.615 C288.553,186.919,260.469,214.79,225.462,214.79z"/>
</svg>
