<svg xmlns="http://www.w3.org/2000/svg" viewBox="0 0 446.5 411.5" y="0px" x="0px">
  <path d="M393.01 300.44l-51.854-51.86c-12.995-12.994-33.628-13.226-46.29-.954-15.93 15.457-23.8 31.124-26.242 45.842-33.08 7.85-71-2.387-98.656-30.04-27.654-27.654-37.896-65.582-30.035-98.662 14.702-2.44 30.38-10.306 45.836-26.242 12.267-12.655 12.035-33.294-.96-46.29l-51.853-51.86c-12.99-12.983-34.792-14.32-46.284-.947C66.583 62.82 59.25 83 59.536 100.117c-6.788 55.857 23.635 129.54 83.932 189.82 60.292 60.296 133.96 90.726 189.82 83.926 17.11.286 37.292-7.047 60.685-27.13 13.36-11.51 12.03-33.31-.97-46.3z" />
</svg>
