<svg xmlns="http://www.w3.org/2000/svg" x="0px" y="0px" viewBox="0 0 446.5 411.5">
  <path d="M310.308,40.712 c-19.191-8.131-39.826-12.309-60.669-12.281c-86.126,0.041-155.913,69.894-155.872,156.02c0.016,33.848,10.993,65.904,30.168,92.081 L50.68,349.788c-8.472,8.472-8.472,22.207,0,30.678l0.583,0.583c8.471,8.473,22.207,8.473,30.678,0l72.907-72.906 c10.327,7.916,21.74,14.624,34.087,19.849c79.763,32.491,170.763-5.831,203.254-85.594 C424.088,164.09,387.767,74.624,310.308,40.712z M249.611,296.056c-61.689-0.007-111.694-50.019-111.694-111.708 c0-61.694,50.014-111.707,111.708-111.707c0.004,0,0.009,0,0.014,0c61.695,0.007,111.701,50.027,111.693,111.721 C361.325,246.058,311.305,296.064,249.611,296.056z"/>
</svg>
